<svg width="4" height="16" viewBox="0 0 4 16" fill="none" xmlns="http://www.w3.org/2000/svg">
<path d="M2 0.666687C1.46957 0.666687 0.960859 0.877401 0.585786 1.25247C0.210713 1.62755 0 2.13625 0 2.66669C0 3.19712 0.210713 3.70583 0.585786 4.0809C0.960859 4.45597 1.46957 4.66669 2 4.66669C2.53043 4.66669 3.03914 4.45597 3.41421 4.0809C3.78929 3.70583 4 3.19712 4 2.66669C4 2.13625 3.78929 1.62755 3.41421 1.25247C3.03914 0.877401 2.53043 0.666687 2 0.666687ZM2 6.00002C1.46957 6.00002 0.960859 6.21073 0.585786 6.58581C0.210713 6.96088 0 7.46959 0 8.00002C0 8.53045 0.210713 9.03916 0.585786 9.41423C0.960859 9.78931 1.46957 10 2 10C2.53043 10 3.03914 9.78931 3.41421 9.41423C3.78929 9.03916 4 8.53045 4 8.00002C4 7.46959 3.78929 6.96088 3.41421 6.58581C3.03914 6.21073 2.53043 6.00002 2 6.00002ZM2 11.3334C1.46957 11.3334 0.960859 11.5441 0.585786 11.9191C0.210713 12.2942 0 12.8029 0 13.3334C0 13.8638 0.210713 14.3725 0.585786 14.7476C0.960859 15.1226 1.46957 15.3334 2 15.3334C2.53043 15.3334 3.03914 15.1226 3.41421 14.7476C3.78929 14.3725 4 13.8638 4 13.3334C4 12.8029 3.78929 12.2942 3.41421 11.9191C3.03914 11.5441 2.53043 11.3334 2 11.3334Z" fill="#C3C3C3"/>
</svg>
